<?xml version="1.0" encoding="utf-8"?>
<!-- Generator: Adobe Illustrator 22.0.1, SVG Export Plug-In . SVG Version: 6.00 Build 0)  -->
<svg version="1.1" id="Layer_1" xmlns="http://www.w3.org/2000/svg" xmlns:xlink="http://www.w3.org/1999/xlink" x="0px" y="0px"
	 viewBox="0 0 250 250" style="enable-background:new 0 0 250 250;" xml:space="preserve">
<style type="text/css">
	.st0{fill:#FFFFFF;}
</style>
<path class="st0" d="M177.4,45.5v63.5h-46.6V45.5l-89.9,0v33.5l49,0v70.6c0,5.8-1.4,10.2-4.3,13.3c-2.9,3.1-6.9,4.7-11.9,4.7
	c-4.7,0-10-1.5-15.8-4.6c-5.8-3-11.4-7.4-16.9-13l-18.7,27.8C36.7,194.7,54.7,203,76.5,203c16.7,0,29.9-4.6,39.6-13.8
	c9.7-9.2,14.5-22.1,14.5-38.7v-9.1h46.6v59.8H218V45.5H177.4z"/>
<path class="st0" d="M538,242.9c-10.1,9.6-24,14.4-41.5,14.4c-22.8,0-41.7-8.7-56.7-26.2l19.5-29c5.7,5.9,11.6,10.4,17.7,13.6
	c6,3.2,11.5,4.8,16.5,4.8c5.3,0,9.4-1.6,12.4-4.9c3-3.3,4.5-7.9,4.5-13.9v-73.9l-51.2,0V92.6l94,0v109.9
	C553.2,219.8,548.2,233.3,538,242.9z"/>
<path class="st0" d="M536.3,159H602V92.6h42.5v162.8H602v-62.5h-65.7V159z"/>
</svg>
